<svg width="50" height="50" viewBox="0 0 50 50" fill="none" xmlns="http://www.w3.org/2000/svg">
<g clip-path="url(#clip0_4_2)">
<g clip-path="url(#clip1_4_2)">
<path d="M46.3195 13.8353L44.0718 16.0064L41.2287 13.0628" stroke="black" stroke-width="2" stroke-linecap="round" stroke-linejoin="round"/>
<path d="M34.0439 8.62307C34.9381 7.75938 36.245 7.39625 37.6771 7.61356C39.1092 7.83088 40.5491 8.61083 41.6802 9.78185C42.7289 10.8693 43.4344 12.2136 43.6617 13.5576L44.0718 16.0064" stroke="black" stroke-width="2" stroke-linecap="round" stroke-linejoin="round"/>
</g>
<g clip-path="url(#clip2_4_2)">
<path d="M35.6588 47.621L33.5014 45.289L36.5941 42.4279" stroke="black" stroke-width="2" stroke-linecap="round" stroke-linejoin="round"/>
<path d="M41.3412 35.1512C42.1995 36.0789 42.5338 37.4208 42.2707 38.8816C42.0076 40.3424 41.1686 41.8025 39.9382 42.9407C38.7958 43.996 37.4002 44.6964 36.0186 44.9079L33.5014 45.2891" stroke="black" stroke-width="2" stroke-linecap="round" stroke-linejoin="round"/>
</g>
<g clip-path="url(#clip3_4_2)">
<path d="M4.16807 35.6234L6.76559 33.886L9.04083 37.2876" stroke="black" stroke-width="2" stroke-linecap="round" stroke-linejoin="round"/>
<path d="M15.323 42.9328C14.2896 43.6239 12.939 43.7492 11.5683 43.281C10.1976 42.8129 8.91898 41.7896 8.01384 40.4363C7.17492 39.18 6.71935 37.7317 6.73432 36.3687L6.76559 33.886" stroke="black" stroke-width="2" stroke-linecap="round" stroke-linejoin="round"/>
</g>
<g clip-path="url(#clip4_4_2)">
<path d="M13.5642 5.38613L15.4746 7.85923L12.2359 10.361" stroke="black" stroke-width="2" stroke-linecap="round" stroke-linejoin="round"/>
<path d="M7.032 17.0132C6.27202 16.0293 6.05499 14.6904 6.42867 13.2909C6.80235 11.8915 7.73612 10.5462 9.02456 9.55091C10.2208 8.62833 11.6347 8.07513 12.9956 7.99719L15.4746 7.85921" stroke="black" stroke-width="2" stroke-linecap="round" stroke-linejoin="round"/>
</g>
<g clip-path="url(#clip5_4_2)">
<path d="M39.0833 30.1563V22.3438C39.0833 21.9984 39.2205 21.6672 39.4647 21.4231C39.7089 21.1789 40.0401 21.0417 40.3854 21.0417H46.8958C47.034 21.0417 47.1664 21.0966 47.2641 21.1942C47.3618 21.2919 47.4167 21.4244 47.4167 21.5625V30.9375C47.4167 31.0757 47.3618 31.2081 47.2641 31.3058C47.1664 31.4035 47.034 31.4584 46.8958 31.4584H40.3854C40.0401 31.4584 39.7089 31.3212 39.4647 31.077C39.2205 30.8328 39.0833 30.5016 39.0833 30.1563ZM39.0833 30.1563C39.0833 29.8109 39.2205 29.4797 39.4647 29.2356C39.7089 28.9914 40.0401 28.8542 40.3854 28.8542H47.4167" stroke="black" stroke-width="2" stroke-linecap="round" stroke-linejoin="round"/>
</g>
<g clip-path="url(#clip6_4_2)">
<path d="M30.0281 39.5479C30.3035 39.2726 30.4582 38.8992 30.4583 38.5098C30.4583 38.1204 30.3037 37.747 30.0284 37.4716C29.7531 37.1962 29.3797 37.0415 28.9903 37.0414C28.6009 37.0414 28.2275 37.196 27.9521 37.4713L21.001 44.4239C20.8801 44.5445 20.7907 44.693 20.7406 44.8562L20.0526 47.1229C20.0391 47.1679 20.0381 47.2158 20.0497 47.2614C20.0612 47.3069 20.0849 47.3485 20.1181 47.3817C20.1514 47.415 20.193 47.4386 20.2386 47.45C20.2842 47.4615 20.3321 47.4604 20.3771 47.4469L22.6443 46.7594C22.8074 46.7097 22.9558 46.6209 23.0766 46.5005L30.0281 39.5479Z" stroke="black" stroke-width="2" stroke-linecap="round" stroke-linejoin="round"/>
<path d="M26.8125 38.6042L28.8958 40.6875" stroke="black" stroke-width="2" stroke-linecap="round" stroke-linejoin="round"/>
</g>
<g clip-path="url(#clip7_4_2)">
<path d="M10.4167 27.0834V22.3959C10.4167 22.1196 10.3069 21.8546 10.1116 21.6593C9.91622 21.4639 9.65127 21.3542 9.375 21.3542H3.125C2.84873 21.3542 2.58378 21.4639 2.38843 21.6593C2.19308 21.8546 2.08333 22.1196 2.08333 22.3959V27.0834M10.4167 27.0834H2.08333M10.4167 27.0834L11.0833 28.4115C11.1235 28.4912 11.1425 28.5798 11.1385 28.669C11.1346 28.7581 11.1078 28.8447 11.0607 28.9205C11.0137 28.9963 10.9479 29.0588 10.8698 29.1019C10.7917 29.145 10.7038 29.1673 10.6146 29.1667H1.88542C1.79619 29.1673 1.70831 29.145 1.63018 29.1019C1.55206 29.0588 1.48631 28.9963 1.43926 28.9205C1.3922 28.8447 1.36541 28.7581 1.36146 28.669C1.3575 28.5798 1.37651 28.4912 1.41667 28.4115L2.08333 27.0834" stroke="black" stroke-width="2" stroke-linecap="round" stroke-linejoin="round"/>
</g>
<g clip-path="url(#clip8_4_2)">
<path d="M25.6375 1.25H25.3625C25.031 1.25 24.713 1.3817 24.4786 1.61612C24.2442 1.85054 24.1125 2.16848 24.1125 2.5V2.6125C24.1123 2.8317 24.0544 3.04699 23.9447 3.23677C23.835 3.42655 23.6773 3.58415 23.4875 3.69375L23.2188 3.85C23.0287 3.95971 22.8132 4.01747 22.5937 4.01747C22.3743 4.01747 22.1588 3.95971 21.9687 3.85L21.875 3.8C21.5882 3.63454 21.2474 3.58965 20.9275 3.67519C20.6076 3.76073 20.3347 3.96971 20.1688 4.25625L20.0312 4.49375C19.8658 4.78058 19.8209 5.12135 19.9064 5.44125C19.992 5.76115 20.201 6.03403 20.4875 6.2L20.5813 6.2625C20.7702 6.37157 20.9273 6.52818 21.0369 6.71677C21.1466 6.90536 21.2049 7.11936 21.2063 7.3375V7.65625C21.2071 7.87651 21.1498 8.0931 21.04 8.28407C20.9303 8.47504 20.772 8.63362 20.5813 8.74375L20.4875 8.8C20.201 8.96597 19.992 9.23885 19.9064 9.55875C19.8209 9.87865 19.8658 10.2194 20.0312 10.5062L20.1688 10.7438C20.3347 11.0303 20.6076 11.2393 20.9275 11.3248C21.2474 11.4103 21.5882 11.3655 21.875 11.2L21.9687 11.15C22.1588 11.0403 22.3743 10.9825 22.5937 10.9825C22.8132 10.9825 23.0287 11.0403 23.2188 11.15L23.4875 11.3063C23.6773 11.4159 23.835 11.5734 23.9447 11.7632C24.0544 11.953 24.1123 12.1683 24.1125 12.3875V12.5C24.1125 12.8315 24.2442 13.1495 24.4786 13.3839C24.713 13.6183 25.031 13.75 25.3625 13.75H25.6375C25.969 13.75 26.287 13.6183 26.5214 13.3839C26.7558 13.1495 26.8875 12.8315 26.8875 12.5V12.3875C26.8877 12.1683 26.9456 11.953 27.0553 11.7632C27.165 11.5734 27.3227 11.4159 27.5125 11.3063L27.7812 11.15C27.9713 11.0403 28.1868 10.9825 28.4062 10.9825C28.6257 10.9825 28.8412 11.0403 29.0312 11.15L29.125 11.2C29.4118 11.3655 29.7526 11.4103 30.0725 11.3248C30.3924 11.2393 30.6653 11.0303 30.8313 10.7438L30.9688 10.5C31.1342 10.2132 31.1791 9.8724 31.0936 9.5525C31.008 9.2326 30.799 8.95972 30.5125 8.79375L30.4188 8.74375C30.228 8.63362 30.0697 8.47504 29.96 8.28407C29.8502 8.0931 29.7929 7.87651 29.7938 7.65625V7.34375C29.7929 7.12349 29.8502 6.9069 29.96 6.71593C30.0697 6.52496 30.228 6.36638 30.4188 6.25625L30.5125 6.2C30.799 6.03403 31.008 5.76115 31.0936 5.44125C31.1791 5.12135 31.1342 4.78058 30.9688 4.49375L30.8313 4.25625C30.6653 3.96971 30.3924 3.76073 30.0725 3.67519C29.7526 3.58965 29.4118 3.63454 29.125 3.8L29.0312 3.85C28.8412 3.95971 28.6257 4.01747 28.4062 4.01747C28.1868 4.01747 27.9713 3.95971 27.7812 3.85L27.5125 3.69375C27.3227 3.58415 27.165 3.42655 27.0553 3.23677C26.9456 3.04699 26.8877 2.8317 26.8875 2.6125V2.5C26.8875 2.16848 26.7558 1.85054 26.5214 1.61612C26.287 1.3817 25.969 1.25 25.6375 1.25Z" stroke="black" stroke-width="2" stroke-linecap="round" stroke-linejoin="round"/>
<path d="M25.5 9.375C26.5355 9.375 27.375 8.53553 27.375 7.5C27.375 6.46447 26.5355 5.625 25.5 5.625C24.4645 5.625 23.625 6.46447 23.625 7.5C23.625 8.53553 24.4645 9.375 25.5 9.375Z" stroke="black" stroke-width="2" stroke-linecap="round" stroke-linejoin="round"/>
</g>
</g>
<defs>
<clipPath id="clip0_4_2">
<rect width="50" height="50" fill="white"/>
</clipPath>
<clipPath id="clip1_4_2">
<rect width="16.3697" height="12.5" fill="white" transform="translate(38.9909 1) rotate(45.9941)"/>
</clipPath>
<clipPath id="clip2_4_2">
<rect width="16.8525" height="12.7072" fill="white" transform="translate(49 40.3278) rotate(137.228)"/>
</clipPath>
<clipPath id="clip3_4_2">
<rect width="16.3697" height="12.5" fill="white" transform="translate(9.10093 49.5562) rotate(-123.777)"/>
</clipPath>
<clipPath id="clip4_4_2">
<rect width="16.3697" height="12.5" fill="white" transform="translate(0 11.257) rotate(-37.6843)"/>
</clipPath>
<clipPath id="clip5_4_2">
<rect width="12.5" height="12.5" fill="white" transform="translate(37 20)"/>
</clipPath>
<clipPath id="clip6_4_2">
<rect width="12.5" height="12.5" fill="white" transform="translate(19 36)"/>
</clipPath>
<clipPath id="clip7_4_2">
<rect width="12.5" height="12.5" fill="white" transform="translate(0 18.75)"/>
</clipPath>
<clipPath id="clip8_4_2">
<rect width="15" height="15" fill="white" transform="translate(18)"/>
</clipPath>
</defs>
</svg>
