<svg width="40" height="40" viewBox="0 0 40 40" fill="none" xmlns="http://www.w3.org/2000/svg">
<path d="M19 32C26.1797 32 32 26.1797 32 19C32 11.8203 26.1797 6 19 6C11.8203 6 6 11.8203 6 19C6 26.1797 11.8203 32 19 32Z" stroke="black" stroke-width="2" stroke-linecap="round" stroke-linejoin="round"/>
<path d="M37 37L29 29" stroke="black" stroke-width="2" stroke-linecap="round" stroke-linejoin="round"/>
<path d="M24 14.3334H17.25C16.6533 14.3334 16.081 14.5792 15.659 15.0168C15.2371 15.4544 15 16.0479 15 16.6667C15 17.2855 15.2371 17.879 15.659 18.3166C16.081 18.7542 16.6533 19 17.25 19H21.75C22.3467 19 22.919 19.2459 23.341 19.6835C23.7629 20.121 24 20.7145 24 21.3334C24 21.9522 23.7629 22.5457 23.341 22.9833C22.919 23.4209 22.3467 23.6667 21.75 23.6667H15" stroke="black" stroke-width="2" stroke-linecap="round" stroke-linejoin="round"/>
<path d="M19.5 26V12" stroke="black" stroke-width="2" stroke-linecap="round" stroke-linejoin="round"/>
</svg>
